# xmcd CD database file
#
# Track frame offsets:
#	150
#	24573
#	44605
#	69028
#
# Disc length: 1185 seconds
#
# Revision: 0
# Processed by: cddbd v1.5PL3 Copyright (c) Steve Scherf et al.
# Submitted via: CDex 1.51
#
DISCID=2b049f04
DTITLE=TOKIO - ラブラブ・マンハッタン
DYEAR=2003
DGENRE=JPop
TTITLE0=ラブラブ・マンハッタン
TTITLE1=ALIVE-LIFE
TTITLE2=ラブラブ・マンハッタン (Backing Track)
TTITLE3=ALIVE-LIFE (Backing Track)
EXTD=YEAR: 2003
EXTT0=
EXTT1=
EXTT2=
EXTT3=
PLAYORDER=
